[URL=http://pix2links.com][img]http://www.pix2links.com/images/52528860993322306373.jpg[/img][/URL]

[IMG]http://www.pix2links.com/images/50420427489765941745_thumb.jpg[/IMG]


*******************************************************************************
Delhi Belly-720p-DVDrip-6ch-[English-Hindi] Dual Audio-SiNiSTER/TDT                 
*******************************************************************************

-------------------------------------------------------------------------------
                              General Information
-------------------------------------------------------------------------------
Complete name                    : E:\Delhi Belly-720p-DVDrip-6ch- [English-Hindi] Dual Audio-SiNiSTER-TDT\Delhi Belly-720p-DVDrip-6ch- [English-Hindi] Dual Audio-SiNiSTER-TDT.mkv
Format                           : Matroska
File size                        : 1.19 GiB
Duration                         : 1h 42mn
Overall bit rate                 : 1 660 Kbps
Movie name                       : Delhi Belly-720p-DVDrip [English-Hindi] Dual Audio-SiNiSTER/TDT
Encoded date                     : UTC 2004-12-31 19:31:26
Writing application              : mkvmerge v4.3.0 ('Escape from the Island') built on Sep  5 2010 10:30:51
Writing library                  : libebml v1.0.0 + libmatroska v1.0.0


[img]http://www.pix2links.com/images/20349311072267311198.png[/img]

Video
ID                               : 1
Format                           : AVC
Format/Info                      : Advanced Video Codec
Format profile                   : High@L3.1
Format settings, CABAC           : Yes
Format settings, ReFrames        : 5 frames
Format settings, GOP             : M=4, N=25
Muxing mode                      : Header stripping
Codec ID                         : V_MPEG4/ISO/AVC
Duration                         : 1h 42mn
Bit rate                         : 764 Kbps
Width                            : 1 280 pixels
Height                           : 544 pixels
Display aspect ratio             : 2.35:1
Frame rate                       : 23.976 fps
Color space                      : YUV
Chroma subsampling               : 4:2:0
Bit depth                        : 8 bits
Scan type                        : Progressive
Bits/(Pixel*Frame)               : 0.046
Stream size                      : 537 MiB (44%)
Writing library                  : x264 core 116 r2074 2641b9e
Encoding settings                : cabac=1 / ref=5 / deblock=1:-1:-1 / analyse=0x3:0x113 / me=umh / subme=5 / psy=1 / psy_rd=1.00:0.00 / mixed_ref=1 / me_range=16 / chroma_me=1 / trellis=2 / 8x8dct=1 / cqm=0 / deadzone=21,11 / fast_pskip=1 / chroma_qp_offset=0 / threads=24 / sliced_threads=0 / nr=0 / decimate=1 / interlaced=0 / bluray_compat=0 / constrained_intra=0 / bframes=3 / b_pyramid=2 / b_adapt=1 / b_bias=0 / direct=3 / weightb=1 / open_gop=0 / weightp=2 / keyint=250 / keyint_min=23 / scenecut=40 / intra_refresh=0 / rc_lookahead=40 / rc=2pass / mbtree=1 / bitrate=764 / ratetol=1.0 / qcomp=0.60 / qpmin=10 / qpmax=51 / qpstep=4 / cplxblur=20.0 / qblur=0.5 / ip_ratio=1.40 / aq=1:1.00
Language                         : English

[img]http://www.pix2links.com/images/97620169951974180344.png[/img]

Audio #1
ID                               : 2
Format                           : AC-3
Format/Info                      : Audio Coding 3
Mode extension                   : CM (complete main)
Muxing mode                      : Header stripping
Codec ID                         : A_AC3
Duration                         : 1h 42mn
Bit rate mode                    : Constant
Bit rate                         : 448 Kbps
Channel(s)                       : 6 channels
Channel positions                : Front: L C R, Side: L R, LFE
Sampling rate                    : 48.0 KHz
Bit depth                        : 16 bits
Compression mode                 : Lossy
Delay relative to video          : 9s 0ms
Stream size                      : 329 MiB (27%)
Title                            : SiNiSTER/TDT
Language                         : English

[img]http://www.pix2links.com/images/97620169951974180344.png[/img]

Audio #2
ID                               : 3
Format                           : AC-3
Format/Info                      : Audio Coding 3
Mode extension                   : CM (complete main)
Muxing mode                      : Header stripping
Codec ID                         : A_AC3
Duration                         : 1h 42mn
Bit rate mode                    : Constant
Bit rate                         : 448 Kbps
Channel(s)                       : 6 channels
Channel positions                : Front: L C R, Side: L R, LFE
Sampling rate                    : 48.0 KHz
Bit depth                        : 16 bits
Compression mode                 : Lossy
Delay relative to video          : 28ms
Stream size                      : 329 MiB (27%)
Title                            : SiNiSTER/TDT
Language                         : Hindi


Text
ID                               : 4
Format                           : UTF-8
Codec ID                         : S_TEXT/UTF8
Codec ID/Info                    : UTF-8 Plain Text
Title                            : SiNiSTER/TDT





Greets(TDT):
Team TDT,DDR,HDDR,DUS,ExD,TNT,IcTV,SaM..etc



Greets(SiNiSTER):
DarkScene,HDScene,Noir,CrEwSaDe,blackjesus,ViSiON,HDLiTE,UnKnOwN,EP1C,IMAGiNE,
FLAWL3SS,Rx,ELEKTRI4KA,CiNEDUB,BDK,SAFCuk009,HiVE-CM8..... and everybody else we 
respect.. u know who u are

-------------------------------------------------------------------------------
                               Post Information
-------------------------------------------------------------------------------
Encoded by...........: SiNiSTER & TDT its a combined release of Both the groups.
 
Have sumthing to offer..looking for suppliers... cammers,cams,screeners, audio
supplier.. and any pre retail DVD/BR any RC...if u can provide any email us at
sinister@hushmail.me


-------------------------------------------------------------------------------
                                 ScreenShots
-------------------------------------------------------------------------------
[img]http://www.pix2links.com/images/58028817626186374343.png[/img]

[img]http://www.pix2links.com/images/00864388188547455825.png[/img]

[img]http://www.pix2links.com/images/78334627437352837422.png[/img]

[img]http://www.pix2links.com/images/38268538024208691096.png[/img]

[img]http://www.pix2links.com/images/85935267510097943564.png[/img]

[img]http://www.pix2links.com/images/82192945860296412749.png[/img]

[img]http://www.pix2links.com/images/20158055785623959529.png[/img]

[img]http://www.pix2links.com/images/29464636059137930122.png[/img]




Enjoy guysss :P

-------------------------------------------------------------------------------
Generated with Cool NFO Creator - http://fly.to/coolbeans
-------------------------------------------------------------------------------

[img]http://www.pix2links.com/images/33502453931372952618.gif[/img]



[b]Note:[color=red] Guys i have added a READ ME.txt file in it for those who dont know how to play different audios in dual audio file.....[/color][/b]